<svg xmlns="http://www.w3.org/2000/svg" viewBox="0 0 64 64" role="img" aria-label="Sharma Cosmo Clinic">
  <rect width="64" height="64" rx="10" fill="#e23a36" />
  <rect x="4" y="4" width="56" height="56" rx="8" fill="none" stroke="#ffffff" stroke-width="2.2" opacity="0.9" />
  <text
    x="7"
    y="44"
    fill="#ffffff"
    font-family="Arial Black, Arial, sans-serif"
    font-size="34"
    font-weight="900"
    letter-spacing="-5"
  >
    SC
  </text>
  <path
    d="M36 18c3.2 0 5.8 2.6 5.8 5.8 0 2.4-1.5 4.5-3.6 5.4 1.8 0.6 3.1 2.3 3.1 4.4 0 2.6-2.1 4.8-4.8 4.8H34v7h-3v-26h5z"
    fill="#ffffff"
  />
  <path
    d="M39.5 20.5c-1.4 0.8-2.1 2-2.1 3.7 0 1.8 0.7 3.1 2.2 4-1.1 0.7-1.6 1.7-1.6 3.1 0 1.7 0.8 3 2.4 3.8"
    fill="none"
    stroke="#e23a36"
    stroke-linecap="round"
    stroke-width="1.7"
  />
</svg>
